# 3ds Max Wavefront OBJ Exporter v0.99 - (c)2007 guruware
# File Created: 21.03.2025 19:27:20

mtllib Cofre.mtl

#
# object Cofre
#

v  2.1808 -0.5693 -1.2302
v  1.8465 -0.4555 -1.0206
v  2.2056 -0.5658 -0.9807
v  2.5399 -0.6914 -1.1840
v  1.8217 -0.4590 -1.2803
v  2.1521 -0.5672 -1.4794
v  2.5644 -0.6879 -0.9436
v  2.8990 -0.8244 -1.1441
v  2.5091 -0.6886 -1.4252
v  3.2577 -0.9672 -1.1137
v  2.9235 -0.8209 -0.9121
v  3.2826 -0.9637 -0.8876
v  0.3856 -0.1419 -1.4777
v  0.0265 -0.0880 -1.5200
v  0.0510 -0.0845 -1.2127
v  0.4101 -0.1381 -1.1788
v  0.3657 -0.1430 -1.7692
v  -0.2944 -0.0397 -1.2421
v  -0.3193 -0.0436 -1.5571
v  0.0083 -0.0898 -1.8186
v  0.7444 -0.2049 -1.4311
v  0.7692 -0.2014 -1.1417
v  1.1035 -0.2781 -1.3821
v  0.7234 -0.2053 -1.7150
v  1.1283 -0.2746 -1.1021
v  1.4626 -0.3624 -1.3314
v  1.0807 -0.2781 -1.6572
v  1.4874 -0.3589 -1.0615
v  1.7951 -0.4580 -1.5382
v  1.4381 -0.3617 -1.5977
v  2.2210 -0.5623 -0.7304
v  1.8619 -0.4520 -0.7602
v  2.2298 -0.5591 -0.4791
v  2.5801 -0.6844 -0.7024
v  1.8707 -0.4489 -0.4991
v  2.2329 -0.5567 -0.2275
v  2.9392 -0.8174 -0.6786
v  2.5885 -0.6813 -0.4606
v  2.5920 -0.6788 -0.2184
v  2.9476 -0.8143 -0.4448
v  1.8742 -0.4468 -0.2376
v  1.8745 -0.4457 0.0242
v  2.2336 -0.5560 0.0242
v  2.5927 -0.6781 0.0242
v  2.9511 -0.8122 -0.2103
v  3.3106 -0.9539 0.0242
v  3.3102 -0.9550 -0.2044
v  2.9518 -0.8111 0.0242
v  3.3067 -0.9571 -0.4326
v  3.2983 -0.9602 -0.6604
v  0.0787 -0.0754 -0.2856
v  0.4384 -0.1286 0.0242
v  0.4378 -0.1293 -0.2772
v  0.0752 -0.0779 -0.5953
v  0.0793 -0.0747 0.0242
v  -0.2668 -0.0310 -0.2929
v  0.4343 -0.1314 -0.5782
v  0.0668 -0.0807 -0.9044
v  -0.2703 -0.0331 -0.6100
v  0.4259 -0.1346 -0.8788
v  -0.2790 -0.0362 -0.9264
v  0.7850 -0.1976 -0.8508
v  0.7934 -0.1948 -0.5596
v  1.1441 -0.2711 -0.8214
v  0.7969 -0.1923 -0.2677
v  1.5032 -0.3554 -0.7910
v  1.1525 -0.2679 -0.5400
v  1.1559 -0.2655 -0.2579
v  1.5116 -0.3523 -0.5197
v  0.7972 -0.1916 0.0242
v  1.1563 -0.2648 0.0242
v  1.5150 -0.3502 -0.2478
v  1.5154 -0.3491 0.0242
v  2.9235 -0.8209 0.9604
v  2.8990 -0.8244 1.1925
v  3.2577 -0.9672 1.1620
v  3.2826 -0.9637 0.9359
v  2.5644 -0.6879 0.9919
v  2.5398 -0.6914 1.2324
v  2.1808 -0.5693 1.2786
v  1.8465 -0.4555 1.0689
v  1.8217 -0.4590 1.3286
v  2.1521 -0.5672 1.5278
v  2.2056 -0.5658 1.0290
v  2.5091 -0.6886 1.4735
v  0.0510 -0.0845 1.2611
v  0.0265 -0.0880 1.5684
v  0.3856 -0.1419 1.5260
v  0.4101 -0.1381 1.2271
v  -0.2944 -0.0397 1.2905
v  -0.3193 -0.0436 1.6055
v  0.3657 -0.1430 1.8176
v  1.4874 -0.3589 1.1099
v  1.4626 -0.3624 1.3797
v  1.1283 -0.2746 1.1505
v  1.1035 -0.2781 1.4305
v  1.7950 -0.4580 1.5866
v  1.4381 -0.3617 1.6461
v  0.7444 -0.2049 1.4795
v  0.7233 -0.2053 1.7633
v  0.7692 -0.2014 1.1900
v  1.0807 -0.2781 1.7056
v  2.2210 -0.5623 0.7788
v  2.5801 -0.6844 0.7508
v  1.8619 -0.4520 0.8085
v  2.2298 -0.5591 0.5275
v  2.9392 -0.8174 0.7270
v  1.8707 -0.4489 0.5474
v  2.2329 -0.5567 0.2758
v  2.5885 -0.6813 0.5089
v  2.9476 -0.8143 0.4932
v  2.5920 -0.6788 0.2667
v  3.2983 -0.9602 0.7088
v  3.3067 -0.9571 0.4809
v  2.9511 -0.8122 0.2587
v  3.3102 -0.9550 0.2527
v  1.8742 -0.4468 0.2860
v  0.0668 -0.0807 0.9527
v  0.4259 -0.1346 0.9272
v  0.0752 -0.0779 0.6437
v  0.4343 -0.1314 0.6265
v  -0.2790 -0.0362 0.9748
v  0.0787 -0.0754 0.3339
v  -0.2668 -0.0310 0.3413
v  0.4378 -0.1293 0.3255
v  -0.2703 -0.0331 0.6584
v  0.7850 -0.1976 0.8992
v  1.1441 -0.2711 0.8698
v  0.7934 -0.1948 0.6080
v  1.5032 -0.3554 0.8393
v  0.7969 -0.1923 0.3161
v  1.1525 -0.2679 0.5884
v  1.5116 -0.3523 0.5681
v  1.1559 -0.2655 0.3063
v  1.5150 -0.3502 0.2961
# 135 vertices

vn 0.3118 0.9495 -0.0362
vn 0.2803 0.9593 -0.0352
vn 0.3114 0.9495 -0.0389
vn 0.3392 0.9398 -0.0409
vn 0.2805 0.9593 -0.0319
vn 0.3083 0.9513 -0.0054
vn 0.3384 0.9400 -0.0425
vn 0.3626 0.9308 -0.0461
vn 0.3372 0.9414 -0.0105
vn 0.3815 0.9230 -0.0511
vn 0.3616 0.9312 -0.0457
vn 0.3810 0.9233 -0.0483
vn 0.1628 0.9865 -0.0199
vn 0.1398 0.9900 -0.0182
vn 0.1400 0.9899 -0.0207
vn 0.1630 0.9864 -0.0229
vn 0.1594 0.9872 -0.0008
vn 0.1199 0.9926 -0.0190
vn 0.1196 0.9927 -0.0172
vn 0.1367 0.9906 -0.0023
vn 0.1890 0.9817 -0.0221
vn 0.1891 0.9816 -0.0254
vn 0.2175 0.9757 -0.0248
vn 0.1851 0.9827 -0.0001
vn 0.2175 0.9756 -0.0283
vn 0.2481 0.9683 -0.0280
vn 0.2133 0.9770 0.0000
vn 0.2480 0.9682 -0.0315
vn 0.2763 0.9611 -0.0025
vn 0.2437 0.9698 -0.0007
vn 0.3096 0.9505 -0.0275
vn 0.2786 0.9601 -0.0251
vn 0.3085 0.9511 -0.0174
vn 0.3368 0.9411 -0.0297
vn 0.2775 0.9606 -0.0161
vn 0.3079 0.9514 -0.0082
vn 0.3602 0.9323 -0.0318
vn 0.3357 0.9418 -0.0186
vn 0.3351 0.9421 -0.0087
vn 0.3594 0.9330 -0.0197
vn 0.2769 0.9609 -0.0078
vn 0.2766 0.9610 0.0000
vn 0.3076 0.9515 0.0000
vn 0.3349 0.9422 0.0000
vn 0.3589 0.9333 -0.0092
vn 0.3792 0.9253 0.0000
vn 0.3793 0.9252 -0.0095
vn 0.3587 0.9335 0.0000
vn 0.3797 0.9249 -0.0207
vn 0.3803 0.9242 -0.0336
vn 0.1382 0.9904 -0.0058
vn 0.1607 0.9870 0.0000
vn 0.1608 0.9870 -0.0061
vn 0.1386 0.9903 -0.0112
vn 0.1381 0.9904 0.0000
vn 0.1184 0.9930 -0.0056
vn 0.1613 0.9868 -0.0119
vn 0.1392 0.9901 -0.0161
vn 0.1187 0.9929 -0.0106
vn 0.1620 0.9866 -0.0174
vn 0.1192 0.9928 -0.0150
vn 0.1879 0.9820 -0.0190
vn 0.1871 0.9823 -0.0128
vn 0.2161 0.9761 -0.0208
vn 0.1866 0.9824 -0.0065
vn 0.2465 0.9689 -0.0229
vn 0.2152 0.9765 -0.0138
vn 0.2146 0.9767 -0.0069
vn 0.2454 0.9693 -0.0149
vn 0.1864 0.9825 0.0000
vn 0.2144 0.9767 0.0000
vn 0.2448 0.9695 -0.0073
vn 0.2446 0.9696 0.0000
vn 0.3616 0.9312 0.0457
vn 0.3626 0.9308 0.0461
vn 0.3815 0.9230 0.0511
vn 0.3810 0.9233 0.0483
vn 0.3384 0.9400 0.0425
vn 0.3392 0.9398 0.0409
vn 0.3118 0.9495 0.0362
vn 0.2803 0.9593 0.0352
vn 0.2805 0.9593 0.0319
vn 0.3083 0.9513 0.0054
vn 0.3114 0.9495 0.0389
vn 0.3372 0.9414 0.0105
vn 0.1400 0.9899 0.0207
vn 0.1398 0.9900 0.0182
vn 0.1628 0.9865 0.0199
vn 0.1630 0.9864 0.0229
vn 0.1199 0.9926 0.0190
vn 0.1196 0.9927 0.0172
vn 0.1594 0.9872 0.0008
vn 0.2480 0.9682 0.0315
vn 0.2481 0.9683 0.0280
vn 0.2175 0.9756 0.0283
vn 0.2175 0.9757 0.0248
vn 0.2763 0.9611 0.0025
vn 0.2437 0.9698 0.0007
vn 0.1890 0.9817 0.0221
vn 0.1851 0.9827 0.0001
vn 0.1891 0.9816 0.0254
vn 0.3096 0.9505 0.0275
vn 0.3368 0.9411 0.0297
vn 0.2786 0.9601 0.0251
vn 0.3085 0.9511 0.0174
vn 0.3602 0.9323 0.0318
vn 0.2775 0.9606 0.0161
vn 0.3079 0.9514 0.0082
vn 0.3357 0.9418 0.0186
vn 0.3594 0.9330 0.0197
vn 0.3351 0.9421 0.0087
vn 0.3803 0.9242 0.0336
vn 0.3797 0.9249 0.0207
vn 0.3589 0.9333 0.0092
vn 0.3793 0.9252 0.0095
vn 0.2769 0.9609 0.0078
vn 0.1392 0.9901 0.0161
vn 0.1620 0.9866 0.0174
vn 0.1386 0.9903 0.0112
vn 0.1613 0.9868 0.0119
vn 0.1192 0.9928 0.0150
vn 0.1382 0.9904 0.0058
vn 0.1184 0.9930 0.0056
vn 0.1608 0.9870 0.0061
vn 0.1187 0.9929 0.0106
vn 0.1879 0.9820 0.0190
vn 0.2161 0.9761 0.0208
vn 0.1871 0.9823 0.0128
vn 0.2465 0.9689 0.0229
vn 0.1866 0.9824 0.0065
vn 0.2152 0.9765 0.0138
vn 0.2454 0.9693 0.0149
vn 0.2146 0.9767 0.0069
vn 0.2448 0.9695 0.0073
# 134 vertex normals

vt 0.4133 0.1875 0.0000
vt 0.4244 0.1945 0.0000
vt 0.4124 0.1959 0.0000
vt 0.4013 0.1891 0.0000
vt 0.4253 0.1859 0.0000
vt 0.4142 0.1792 0.0000
vt 0.4004 0.1971 0.0000
vt 0.3893 0.1904 0.0000
vt 0.4023 0.1810 0.0000
vt 0.3773 0.1914 0.0000
vt 0.3884 0.1982 0.0000
vt 0.3764 0.1990 0.0000
vt 0.4732 0.1793 0.0000
vt 0.4852 0.1779 0.0000
vt 0.4844 0.1881 0.0000
vt 0.4724 0.1893 0.0000
vt 0.4739 0.1695 0.0000
vt 0.4960 0.1871 0.0000
vt 0.4968 0.1766 0.0000
vt 0.4859 0.1678 0.0000
vt 0.4613 0.1808 0.0000
vt 0.4604 0.1905 0.0000
vt 0.4493 0.1825 0.0000
vt 0.4620 0.1713 0.0000
vt 0.4484 0.1918 0.0000
vt 0.4373 0.1842 0.0000
vt 0.4500 0.1733 0.0000
vt 0.4364 0.1932 0.0000
vt 0.4261 0.1773 0.0000
vt 0.4381 0.1753 0.0000
vt 0.4119 0.2042 0.0000
vt 0.4239 0.2032 0.0000
vt 0.4116 0.2126 0.0000
vt 0.3999 0.2052 0.0000
vt 0.4236 0.2119 0.0000
vt 0.4115 0.2210 0.0000
vt 0.3879 0.2060 0.0000
vt 0.3996 0.2132 0.0000
vt 0.3995 0.2213 0.0000
vt 0.3876 0.2138 0.0000
vt 0.4235 0.2207 0.0000
vt 0.4235 0.2294 0.0000
vt 0.4115 0.2294 0.0000
vt 0.3995 0.2294 0.0000
vt 0.3875 0.2216 0.0000
vt 0.3755 0.2294 0.0000
vt 0.3755 0.2218 0.0000
vt 0.3875 0.2294 0.0000
vt 0.3756 0.2142 0.0000
vt 0.3759 0.2066 0.0000
vt 0.4835 0.2191 0.0000
vt 0.4715 0.2294 0.0000
vt 0.4715 0.2193 0.0000
vt 0.4836 0.2087 0.0000
vt 0.4835 0.2294 0.0000
vt 0.4950 0.2188 0.0000
vt 0.4716 0.2093 0.0000
vt 0.4839 0.1984 0.0000
vt 0.4952 0.2082 0.0000
vt 0.4719 0.1993 0.0000
vt 0.4954 0.1977 0.0000
vt 0.4599 0.2002 0.0000
vt 0.4596 0.2099 0.0000
vt 0.4479 0.2012 0.0000
vt 0.4595 0.2197 0.0000
vt 0.4359 0.2022 0.0000
vt 0.4476 0.2106 0.0000
vt 0.4475 0.2200 0.0000
vt 0.4356 0.2113 0.0000
vt 0.4595 0.2294 0.0000
vt 0.4475 0.2294 0.0000
vt 0.4355 0.2203 0.0000
vt 0.4355 0.2294 0.0000
vt 0.3884 0.2606 0.0000
vt 0.3893 0.2684 0.0000
vt 0.3773 0.2674 0.0000
vt 0.3764 0.2598 0.0000
vt 0.4004 0.2617 0.0000
vt 0.4013 0.2697 0.0000
vt 0.4133 0.2713 0.0000
vt 0.4244 0.2643 0.0000
vt 0.4253 0.2729 0.0000
vt 0.4142 0.2796 0.0000
vt 0.4124 0.2629 0.0000
vt 0.4023 0.2778 0.0000
vt 0.4844 0.2707 0.0000
vt 0.4852 0.2810 0.0000
vt 0.4732 0.2795 0.0000
vt 0.4724 0.2696 0.0000
vt 0.4960 0.2717 0.0000
vt 0.4968 0.2822 0.0000
vt 0.4739 0.2893 0.0000
vt 0.4364 0.2656 0.0000
vt 0.4373 0.2746 0.0000
vt 0.4484 0.2670 0.0000
vt 0.4493 0.2763 0.0000
vt 0.4261 0.2816 0.0000
vt 0.4381 0.2836 0.0000
vt 0.4613 0.2780 0.0000
vt 0.4620 0.2875 0.0000
vt 0.4604 0.2683 0.0000
vt 0.4500 0.2855 0.0000
vt 0.4119 0.2546 0.0000
vt 0.3999 0.2536 0.0000
vt 0.4239 0.2556 0.0000
vt 0.4116 0.2462 0.0000
vt 0.3879 0.2529 0.0000
vt 0.4236 0.2469 0.0000
vt 0.4115 0.2378 0.0000
vt 0.3996 0.2456 0.0000
vt 0.3876 0.2450 0.0000
vt 0.3995 0.2375 0.0000
vt 0.3759 0.2522 0.0000
vt 0.3756 0.2446 0.0000
vt 0.3875 0.2372 0.0000
vt 0.3755 0.2370 0.0000
vt 0.4235 0.2381 0.0000
vt 0.4839 0.2604 0.0000
vt 0.4719 0.2595 0.0000
vt 0.4836 0.2501 0.0000
vt 0.4716 0.2495 0.0000
vt 0.4954 0.2611 0.0000
vt 0.4835 0.2397 0.0000
vt 0.4950 0.2400 0.0000
vt 0.4715 0.2395 0.0000
vt 0.4952 0.2506 0.0000
vt 0.4599 0.2586 0.0000
vt 0.4479 0.2576 0.0000
vt 0.4596 0.2489 0.0000
vt 0.4359 0.2566 0.0000
vt 0.4595 0.2391 0.0000
vt 0.4476 0.2482 0.0000
vt 0.4356 0.2475 0.0000
vt 0.4475 0.2388 0.0000
vt 0.4355 0.2385 0.0000
# 135 texture coords

o Cofre
g Cofre
usemtl 10603_slot_car_blue_SG_v1_iterations_2_slot_car
s 1
f 1/1/1 2/2/2 3/3/3 
f 3/3/3 4/4/4 1/1/1 
f 5/5/5 2/2/2 1/1/1 
f 1/1/1 6/6/6 5/5/5 
f 4/4/4 3/3/3 7/7/7 
f 7/7/7 8/8/8 4/4/4 
f 9/9/9 6/6/6 1/1/1 
f 1/1/1 4/4/4 9/9/9 
f 10/10/10 8/8/8 11/11/11 
f 11/11/11 12/12/12 10/10/10 
f 7/7/7 11/11/11 8/8/8 
f 13/13/13 14/14/14 15/15/15 
f 15/15/15 16/16/16 13/13/13 
f 14/14/14 13/13/13 17/17/17 
f 18/18/18 15/15/15 14/14/14 
f 19/19/19 14/14/14 20/20/20 
f 21/21/21 16/16/16 22/22/22 
f 22/22/22 23/23/23 21/21/21 
f 13/13/13 16/16/16 21/21/21 
f 21/21/21 24/24/24 13/13/13 
f 23/23/23 22/22/22 25/25/25 
f 25/25/25 26/26/26 23/23/23 
f 27/27/27 24/24/24 21/21/21 
f 21/21/21 23/23/23 27/27/27 
f 5/5/5 26/26/26 28/28/28 
f 28/28/28 2/2/2 5/5/5 
f 26/26/26 5/5/5 29/29/29 
f 25/25/25 28/28/28 26/26/26 
f 23/23/23 26/26/26 30/30/30 
f 31/31/31 2/2/2 32/32/32 
f 32/32/32 33/33/33 31/31/31 
f 3/3/3 2/2/2 31/31/31 
f 31/31/31 34/34/34 3/3/3 
f 33/33/33 32/32/32 35/35/35 
f 35/35/35 36/36/36 33/33/33 
f 7/7/7 3/3/3 34/34/34 
f 34/34/34 37/37/37 7/7/7 
f 38/38/38 31/31/31 33/33/33 
f 33/33/33 39/39/39 38/38/38 
f 34/34/34 31/31/31 38/38/38 
f 38/38/38 40/40/40 34/34/34 
f 36/36/36 41/41/41 42/42/42 
f 42/42/42 43/43/43 36/36/36 
f 39/39/39 36/36/36 43/43/43 
f 43/43/43 44/44/44 39/39/39 
f 35/35/35 41/41/41 36/36/36 
f 33/33/33 36/36/36 39/39/39 
f 45/45/45 46/46/46 47/47/47 
f 47/47/47 40/40/40 45/45/45 
f 48/48/48 46/46/46 45/45/45 
f 45/45/45 39/39/39 48/48/48 
f 40/40/40 47/47/47 49/49/49 
f 49/49/49 37/37/37 40/40/40 
f 39/39/39 44/44/44 48/48/48 
f 39/39/39 45/45/45 40/40/40 
f 40/40/40 38/38/38 39/39/39 
f 37/37/37 50/50/50 12/12/12 
f 12/12/12 11/11/11 37/37/37 
f 37/37/37 11/11/11 7/7/7 
f 49/49/49 50/50/50 37/37/37 
f 40/40/40 37/37/37 34/34/34 
f 51/51/51 52/52/52 53/53/53 
f 53/53/53 54/54/54 51/51/51 
f 55/55/55 52/52/52 51/51/51 
f 51/51/51 56/56/56 55/55/55 
f 54/54/54 53/53/53 57/57/57 
f 57/57/57 58/58/58 54/54/54 
f 56/56/56 51/51/51 54/54/54 
f 54/54/54 59/59/59 56/56/56 
f 58/58/58 60/60/60 16/16/16 
f 16/16/16 15/15/15 58/58/58 
f 58/58/58 15/15/15 18/18/18 
f 57/57/57 60/60/60 58/58/58 
f 54/54/54 58/58/58 61/61/61 
f 62/62/62 16/16/16 60/60/60 
f 60/60/60 63/63/63 62/62/62 
f 22/22/22 16/16/16 62/62/62 
f 62/62/62 64/64/64 22/22/22 
f 63/63/63 60/60/60 57/57/57 
f 57/57/57 65/65/65 63/63/63 
f 25/25/25 22/22/22 64/64/64 
f 64/64/64 66/66/66 25/25/25 
f 67/67/67 62/62/62 63/63/63 
f 63/63/63 68/68/68 67/67/67 
f 64/64/64 62/62/62 67/67/67 
f 67/67/67 69/69/69 64/64/64 
f 65/65/65 53/53/53 52/52/52 
f 52/52/52 70/70/70 65/65/65 
f 68/68/68 65/65/65 70/70/70 
f 70/70/70 71/71/71 68/68/68 
f 57/57/57 53/53/53 65/65/65 
f 63/63/63 65/65/65 68/68/68 
f 72/72/72 42/42/42 41/41/41 
f 41/41/41 69/69/69 72/72/72 
f 73/73/73 42/42/42 72/72/72 
f 72/72/72 68/68/68 73/73/73 
f 69/69/69 41/41/41 35/35/35 
f 35/35/35 66/66/66 69/69/69 
f 68/68/68 71/71/71 73/73/73 
f 68/68/68 72/72/72 69/69/69 
f 69/69/69 67/67/67 68/68/68 
f 66/66/66 32/32/32 2/2/2 
f 2/2/2 28/28/28 66/66/66 
f 66/66/66 28/28/28 25/25/25 
f 35/35/35 32/32/32 66/66/66 
f 69/69/69 66/66/66 64/64/64 
f 74/74/74 75/75/75 76/76/76 
f 76/76/76 77/77/77 74/74/74 
f 78/78/78 79/79/79 75/75/75 
f 75/75/75 74/74/74 78/78/78 
f 80/80/80 81/81/81 82/82/82 
f 82/82/82 83/83/83 80/80/80 
f 84/84/84 81/81/81 80/80/80 
f 80/80/80 79/79/79 84/84/84 
f 79/79/79 78/78/78 84/84/84 
f 85/85/85 79/79/79 80/80/80 
f 80/80/80 83/83/83 85/85/85 
f 86/86/86 87/87/87 88/88/88 
f 88/88/88 89/89/89 86/86/86 
f 90/90/90 91/91/91 87/87/87 
f 87/87/87 86/86/86 90/90/90 
f 92/92/92 88/88/88 87/87/87 
f 93/93/93 94/94/94 82/82/82 
f 82/82/82 81/81/81 93/93/93 
f 95/95/95 96/96/96 94/94/94 
f 94/94/94 93/93/93 95/95/95 
f 97/97/97 82/82/82 94/94/94 
f 98/98/98 94/94/94 96/96/96 
f 99/99/99 89/89/89 88/88/88 
f 88/88/88 100/100/100 99/99/99 
f 101/101/101 89/89/89 99/99/99 
f 99/99/99 96/96/96 101/101/101 
f 96/96/96 95/95/95 101/101/101 
f 102/102/27 96/96/96 99/99/99 
f 99/99/99 100/100/100 102/102/27 
f 103/103/102 81/81/81 84/84/84 
f 84/84/84 104/104/103 103/103/102 
f 105/105/104 81/81/81 103/103/102 
f 103/103/102 106/106/105 105/105/104 
f 104/104/103 84/84/84 78/78/78 
f 78/78/78 107/107/106 104/104/103 
f 108/108/107 105/105/104 106/106/105 
f 106/106/105 109/109/108 108/108/107 
f 110/110/109 103/103/102 104/104/103 
f 104/104/103 111/111/110 110/110/109 
f 106/106/105 103/103/102 110/110/109 
f 110/110/109 112/112/111 106/106/105 
f 107/107/106 74/74/74 77/77/77 
f 77/77/77 113/113/112 107/107/106 
f 111/111/110 107/107/106 113/113/112 
f 113/113/112 114/114/113 111/111/110 
f 78/78/78 74/74/74 107/107/106 
f 104/104/103 107/107/106 111/111/110 
f 115/115/114 46/46/46 48/48/48 
f 48/48/48 112/112/111 115/115/114 
f 116/116/115 46/46/46 115/115/114 
f 115/115/114 111/111/110 116/116/115 
f 112/112/111 48/48/48 44/44/44 
f 44/44/44 109/109/108 112/112/111 
f 111/111/110 114/114/113 116/116/115 
f 111/111/110 115/115/114 112/112/111 
f 112/112/111 110/110/109 111/111/110 
f 109/109/108 43/43/43 42/42/42 
f 42/42/42 117/117/116 109/109/108 
f 109/109/108 117/117/116 108/108/107 
f 44/44/44 43/43/43 109/109/108 
f 112/112/111 109/109/108 106/106/105 
f 118/118/117 86/86/86 89/89/89 
f 89/89/89 119/119/118 118/118/117 
f 120/120/119 118/118/117 119/119/118 
f 119/119/118 121/121/120 120/120/119 
f 90/90/90 86/86/86 118/118/117 
f 122/122/121 118/118/117 120/120/119 
f 123/123/122 52/52/52 55/55/55 
f 55/55/55 124/124/123 123/123/122 
f 125/125/124 52/52/52 123/123/122 
f 123/123/122 120/120/119 125/125/124 
f 120/120/119 121/121/120 125/125/124 
f 120/120/119 123/123/122 124/124/123 
f 124/124/123 126/126/125 120/120/119 
f 127/127/126 89/89/89 101/101/101 
f 101/101/101 128/128/127 127/127/126 
f 119/119/118 89/89/89 127/127/126 
f 127/127/126 129/129/128 119/119/118 
f 128/128/127 101/101/101 95/95/95 
f 95/95/95 130/130/129 128/128/127 
f 121/121/120 119/119/118 129/129/128 
f 129/129/128 131/131/130 121/121/120 
f 132/132/131 127/127/126 128/128/127 
f 128/128/127 133/133/132 132/132/131 
f 129/129/128 127/127/126 132/132/131 
f 132/132/131 134/134/133 129/129/128 
f 130/130/129 93/93/93 81/81/81 
f 81/81/81 105/105/104 130/130/129 
f 133/133/132 130/130/129 105/105/104 
f 105/105/104 108/108/107 133/133/132 
f 95/95/95 93/93/93 130/130/129 
f 128/128/127 130/130/129 133/133/132 
f 135/135/134 42/42/42 73/73/73 
f 73/73/73 134/134/133 135/135/134 
f 117/117/116 42/42/42 135/135/134 
f 135/135/134 133/133/132 117/117/116 
f 134/134/133 73/73/73 71/71/71 
f 71/71/71 131/131/130 134/134/133 
f 133/133/132 108/108/107 117/117/116 
f 133/133/132 135/135/134 134/134/133 
f 134/134/133 132/132/131 133/133/132 
f 131/131/130 70/70/70 52/52/52 
f 52/52/52 125/125/124 131/131/130 
f 131/131/130 125/125/124 121/121/120 
f 71/71/71 70/70/70 131/131/130 
f 134/134/133 131/131/130 129/129/128 
# 212 faces

