# 3ds Max Wavefront OBJ Exporter v0.99 - (c)2007 guruware
# File Created: 24.03.2025 21:16:37

mtllib dado_zoo2.mtl

#
# object Box001
#

v  -1.6943 -1.6943 1.6943
v  -1.6943 -1.6943 -1.6943
v  1.6943 -1.6943 -1.6943
v  1.6943 -1.6943 1.6943
v  -1.6943 1.6943 1.6943
v  1.6943 1.6943 1.6943
v  1.6943 1.6943 -1.6943
v  -1.6943 1.6943 -1.6943
# 8 vertices

vn 0.0000 -1.0000 -0.0000
vn 0.0000 1.0000 -0.0000
vn 0.0000 0.0000 1.0000
vn 1.0000 0.0000 -0.0000
vn 0.0000 0.0000 -1.0000
vn -1.0000 0.0000 -0.0000
# 6 vertex normals

vt 0.5024 0.3634 0.0000
vt 0.7471 0.3688 0.0000
vt 0.7506 0.6277 0.0000
vt 0.5077 0.6258 0.0000
vt 0.7534 0.3614 0.0000
vt 0.9915 0.3596 0.0000
vt 0.9897 0.6297 0.0000
vt 0.7516 0.6297 0.0000
vt 0.2552 0.3469 0.0000
vt 0.4862 0.3459 0.0000
vt 0.4890 0.6514 0.0000
vt 0.2552 0.6496 0.0000
vt 0.0086 0.3650 0.0000
vt 0.2373 0.3650 0.0000
vt 0.2374 0.6250 0.0000
vt 0.0051 0.6278 0.0000
vt 0.5070 0.6954 0.0000
vt 0.7443 0.6954 0.0000
vt 0.7479 0.9705 0.0000
vt 0.5070 0.9705 0.0000
vt 0.4994 0.0156 0.0000
vt 0.7393 0.0156 0.0000
vt 0.7456 0.3058 0.0000
vt 0.4994 0.3058 0.0000
# 24 texture coords

o Box001
g Box001
usemtl 02___Default
s 2
f 1/1/1 2/2/1 3/3/1 
f 3/3/1 4/4/1 1/1/1 
s 4
f 5/5/2 6/6/2 7/7/2 
f 7/7/2 8/8/2 5/5/2 
s 8
f 1/9/3 4/10/3 6/11/3 
f 6/11/3 5/12/3 1/9/3 
s 16
f 4/13/4 3/14/4 7/15/4 
f 7/15/4 6/16/4 4/13/4 
s 32
f 3/17/5 2/18/5 8/19/5 
f 8/19/5 7/20/5 3/17/5 
s 64
f 2/21/6 1/22/6 5/23/6 
f 5/23/6 8/24/6 2/21/6 
# 12 faces

